<svg xmlns="http://www.w3.org/2000/svg" viewBox="0 0 32 32"><path d="M14.264 15.366s1.704-.134 1.704-2.237c0-2.104-1.394-3.13-3.16-3.13H7v11.753h5.81s3.544.117 3.544-3.468c0 0 .155-2.92-2.09-2.92zM9.56 12.088h3.25s.788 0 .788 1.223c0 1.224-.464 1.4-.992 1.4H9.56V12.09zm3.084 7.576H9.56v-3.14h3.25s1.176-.017 1.176 1.613c0 1.374-.88 1.517-1.342 1.527zm8.44-6.674c-4.293 0-4.29 4.514-4.29 4.514s-.294 4.492 4.29 4.492c0 0 3.82.23 3.82-3.126H22.94s.065 1.265-1.79 1.265c0 0-1.965.138-1.965-2.044h5.785c0 .003.633-5.1-3.886-5.1zm1.747 3.534h-3.666s.24-1.812 1.965-1.812c1.72 0 1.7 1.812 1.7 1.812zm.46-5.832h-4.607v1.447h4.605V10.69z"/></svg>