<svg xmlns="http://www.w3.org/2000/svg" viewBox="0 0 32 32"><path d="M16 25c-4.963 0-9-4.037-9-9s4.037-9 9-9 9 4.037 9 9-4.037 9-9 9zm7.59-7.768c-.263-.083-2.38-.714-4.788-.33 1.006 2.764 1.414 5.014 1.493 5.482a7.696 7.696 0 0 0 3.295-5.152zm-4.587 5.856c-.114-.674-.56-3.025-1.64-5.83-.017.006-.034.01-.05.017-4.337 1.51-5.894 4.518-6.032 4.8a7.666 7.666 0 0 0 7.722 1.013zm-8.714-1.936c.173-.298 2.283-3.79 6.248-5.073.1-.033.2-.064.303-.092a25.012 25.012 0 0 0-.622-1.305c-3.84 1.15-7.564 1.1-7.9 1.094a7.657 7.657 0 0 0 1.971 5.375zm-1.815-6.715c.344.005 3.51.018 7.107-.937a49.346 49.346 0 0 0-2.85-4.446 7.717 7.717 0 0 0-4.257 5.383zm5.724-5.9a41.492 41.492 0 0 1 2.868 4.5c2.733-1.023 3.89-2.58 4.03-2.776a7.672 7.672 0 0 0-6.898-1.722zm7.75 2.613c-.162.22-1.45 1.87-4.293 3.03.18.367.35.74.51 1.114l.165.397c2.558-.32 5.1.195 5.353.248a7.638 7.638 0 0 0-1.735-4.788z"/></svg>