<svg xmlns="http://www.w3.org/2000/svg" viewBox="0 0 32 32"><path d="M16 25c-4.963 0-9-4.037-9-9s4.037-9 9-9 9 4.037 9 9-4.037 9-9 9zm7.59-7.768c-.263-.083-2.38-.714-4.788-.33 1.006 2.764 1.414 5.014 1.493 5.482 1.725-1.166 2.953-3.013 3.295-5.152zm-4.587 5.856c-.114-.674-.56-3.025-1.64-5.83-.017.006-.034.01-.05.017-4.337 1.51-5.894 4.518-6.032 4.8C12.586 23.094 14.224 23.7 16 23.7c1.065 0 2.08-.22 3.003-.612zm-8.714-1.936c.173-.298 2.283-3.79 6.248-5.073.1-.033.2-.064.303-.092-.192-.437-.402-.874-.622-1.305-3.84 1.15-7.564 1.1-7.9 1.094-.003.078-.005.156-.005.235 0 1.974.748 3.777 1.976 5.14zm-1.815-6.715c.344.005 3.51.018 7.107-.937-1.274-2.264-2.648-4.168-2.85-4.446-2.15 1.015-3.76 2.998-4.257 5.383zm5.724-5.9c.212.286 1.608 2.187 2.868 4.5 2.733-1.023 3.89-2.58 4.03-2.776-1.36-1.203-3.145-1.936-5.098-1.936-.62 0-1.223.075-1.8.214zm7.75 2.613c-.162.22-1.45 1.87-4.293 3.03.18.367.35.74.51 1.114l.165.397c2.558-.32 5.1.195 5.353.248-.015-1.813-.664-3.48-1.735-4.788z"/></svg>