<svg xmlns="http://www.w3.org/2000/svg" viewBox="0 0 32 32"><title>Artboard 1</title><path d="M28.36,1.45A1.45,1.45,0,0,0,26.91,0H5.09A1.45,1.45,0,0,0,3.64,1.45V30.55A1.45,1.45,0,0,0,5.09,32H26.91a1.45,1.45,0,0,0,1.45-1.45ZM25.45,29.09H6.55V2.91H25.45ZM9.64,22.91a1.45,1.45,0,0,1,1.45-1.45h9.8a1.45,1.45,0,1,1,0,2.91H11.1a1.45,1.45,0,0,1-1.45-1.45M9.87,16a1.45,1.45,0,0,1,1.45-1.45H20.9a1.45,1.45,0,1,1,0,2.91H11.32A1.45,1.45,0,0,1,9.87,16m0-6.91a1.45,1.45,0,0,1,1.45-1.45H20.9a1.45,1.45,0,1,1,0,2.91H11.32A1.45,1.45,0,0,1,9.87,9.09"/></svg>