<svg xmlns="http://www.w3.org/2000/svg" viewBox="0 0 32 32"><path d="M24.9 12.3c0-1-.2-1.6-.4-2.2-.2-.6-.5-1.1-1-1.6s-1-.8-1.6-1c-.6-.2-1.2-.4-2.2-.4C18.8 7 18.4 7 16 7s-2.8 0-3.7.1c-1 0-1.6.2-2.2.4-.6.2-1.1.5-1.6 1s-.8 1-1 1.6c-.2.6-.4 1.2-.4 2.2-.1.9-.1 1.3-.1 3.7s0 2.8.1 3.7c0 1 .2 1.6.4 2.2.2.6.5 1.1 1 1.6s1 .8 1.6 1c.6.2 1.2.4 2.2.4 1 0 1.3.1 3.7.1s2.8 0 3.7-.1c1 0 1.6-.2 2.2-.4.6-.2 1.1-.5 1.6-1s.8-1 1-1.6c.2-.6.4-1.2.4-2.2 0-1 .1-1.3.1-3.7s0-2.8-.1-3.7zm-1.6 7.3c0 .9-.2 1.4-.3 1.7-.2.4-.4.7-.7 1s-.6.5-1 .7c-.3.1-.8.3-1.7.3-.9 0-1.2.1-3.6.1s-2.7 0-3.6-.1c-.9 0-1.4-.2-1.7-.3-.4-.2-.7-.4-1-.7s-.5-.6-.7-1c-.1-.3-.3-.8-.3-1.7 0-.9-.1-1.2-.1-3.6s0-2.7.1-3.6c0-.9.2-1.4.3-1.7.2-.4.4-.7.7-1s.6-.5 1-.7c.3-.1.8-.3 1.7-.3.9 0 1.2-.1 3.6-.1s2.7 0 3.6.1c.9 0 1.4.2 1.7.3.4.2.7.4 1 .7s.5.6.7 1c.1.3.3.8.3 1.7 0 .9.1 1.2.1 3.6s0 2.7-.1 3.6z"/><path d="M16 11.4c-2.6 0-4.6 2.1-4.6 4.6s2.1 4.6 4.6 4.6 4.6-2.1 4.6-4.6-2-4.6-4.6-4.6zm0 7.6c-1.7 0-3-1.3-3-3s1.3-3 3-3 3 1.3 3 3-1.3 3-3 3z"/><circle cx="20.8" cy="11.2" r="1.1"/></svg>