<svg xmlns="http://www.w3.org/2000/svg" viewBox="0 0 32 32"><path d="M10.529 8.278c0 1.181-.872 2.138-2.307 2.138C6.872 10.415 6 9.459 6 8.278c0-1.209.901-2.138 2.279-2.138 1.378-.001 2.222.928 2.25 2.138zM6.113 25.86V12.104h4.276V25.86H6.113zm6.835-9.368c0-1.716-.056-3.15-.113-4.388h3.713l.198 1.913h.084c.562-.901 1.941-2.222 4.248-2.222 2.812 0 4.922 1.885 4.922 5.936v8.13h-4.276v-7.623c0-1.772-.62-2.982-2.167-2.982-1.181 0-1.883.816-2.193 1.603-.113.281-.141.674-.141 1.069v7.933h-4.276v-9.369z"/></svg>