<?xml version="1.0" encoding="utf-8"?>
<!-- Generator: Adobe Illustrator 21.0.2, SVG Export Plug-In . SVG Version: 6.00 Build 0)  -->
<svg version="1.1" id="Layer_1" xmlns="http://www.w3.org/2000/svg" xmlns:xlink="http://www.w3.org/1999/xlink" x="0px" y="0px"
	 viewBox="0 0 32 32" style="enable-background:new 0 0 32 32;" xml:space="preserve">
<g>
	<path d="M31,22.1l-10-17.4c-1.2-2.1-3-3.3-4.9-3.3c-1.9,0-3.7,1.2-4.9,3.3L1,22.1c-1.2,2.1-1.4,4.3-0.4,5.9c1,1.7,2.9,2.6,5.3,2.6
		H26c2.4,0,4.4-1,5.3-2.6C32.3,26.3,32.2,24.2,31,22.1z M28,26c-0.2,0.4-1,0.7-1.9,0.7H6c-1,0-1.7-0.3-1.9-0.7
		c-0.2-0.4-0.1-1.2,0.4-2l10-17.4c0.5-0.8,1.1-1.3,1.6-1.3c0.5,0,1.1,0.5,1.6,1.3l10,17.4C28.1,24.9,28.2,25.6,28,26z"/>
	<polygon points="16.8,19.4 17.2,12.8 14.8,12.8 15.2,19.4 	"/>
	<path d="M16,20.2c-0.8,0-1.3,0.6-1.3,1.3c0,0.8,0.5,1.3,1.3,1.3c0.8,0,1.3-0.6,1.3-1.3C17.3,20.7,16.8,20.2,16,20.2z"/>
</g>
</svg>
