<svg xmlns="http://www.w3.org/2000/svg" viewBox="0 0 32 32"><path d="M24.237 10.932c-.497-.878-1.027-1.044-2.104-1.11-1.077-.067-3.782-.1-6.133-.1-2.35 0-5.056.033-6.134.1-1.077.065-1.607.23-2.104 1.11-.496.878-.762 2.4-.762 5.065v.006c0 2.664.266 4.187.762 5.065.497.878 1.027 1.044 2.104 1.11 1.078.066 3.783.1 6.134.1 2.35 0 5.056-.035 6.134-.1 1.077-.066 1.607-.232 2.104-1.11.496-.878.762-2.4.762-5.065v-.006c0-2.664-.266-4.187-.763-5.065zM14.207 19.3v-6.6L19.32 16l-5.112 3.3z" fill-rule="evenodd" clip-rule="evenodd"/></svg>