<svg xmlns="http://www.w3.org/2000/svg" viewBox="0 0 32 32"><title>Artboard 1</title><path d="M31.94,10.22,28.22,22a2,2,0,0,1-1.89,1.37H12A2.06,2.06,0,0,1,10,22.06L4.57,7.34H1.39a1.39,1.39,0,0,1,0-2.78H5.53a1.44,1.44,0,0,1,1.31.93l5.68,15.06H25.74l3-9.39H12.32a1.39,1.39,0,0,1,0-2.78H30.61A1.42,1.42,0,0,1,31.73,9a1.4,1.4,0,0,1,.21,1.24m-19.27,15a2.29,2.29,0,0,0-1.6.66,2.24,2.24,0,0,0,0,3.18,2.27,2.27,0,0,0,3.2,0,2.25,2.25,0,0,0-1.6-3.83m12.48,0a2.28,2.28,0,0,0-1.6.66,2.24,2.24,0,0,0,0,3.18,2.25,2.25,0,1,0,1.6-3.83"/></svg>