<?xml version="1.0" encoding="utf-8"?>
<!-- Generator: Adobe Illustrator 17.1.0, SVG Export Plug-In . SVG Version: 6.00 Build 0)  -->
<!DOCTYPE svg PUBLIC "-//W3C//DTD SVG 1.1//EN" "http://www.w3.org/Graphics/SVG/1.1/DTD/svg11.dtd">
<svg version="1.1" id="Layer_1" xmlns="http://www.w3.org/2000/svg" xmlns:xlink="http://www.w3.org/1999/xlink" x="0px" y="0px"
	 viewBox="0 0 32 32" enable-background="new 0 0 32 32" xml:space="preserve">
<path fill="#010202" d="M24,22h4v6c0,1.1-0.9,2-2,2H2c-1.1,0-2-0.9-2-2V8c0-1.1,0.9-2,2-2h8v4H4v16h20V22z M31.7,10.3l-8-8
	C23.5,2.1,23.3,2,23,2c-0.1,0-0.3,0-0.4,0.1C22.2,2.2,22,2.6,22,3v4c-6.6,0-12,6.3-12,14c2-2.3,5.4-6,12-6v4c0,0.4,0.2,0.8,0.6,0.9
	C22.7,20,22.9,20,23,20c0.3,0,0.5-0.1,0.7-0.3l8-8C32.1,11.3,32.1,10.7,31.7,10.3z"/>
</svg>
