<svg xmlns="http://www.w3.org/2000/svg" viewBox="0 0 32 32"><path d="M16.476 21.463c0-.15-.016-.297-.05-.438-.03-.14-.066-.27-.102-.39-.036-.118-.1-.242-.19-.372l-.227-.33c-.06-.09-.157-.196-.286-.32-.13-.122-.228-.214-.297-.275-.068-.06-.184-.153-.346-.276-.162-.123-.274-.205-.335-.25l-.357-.248c-.177-.123-.287-.198-.33-.227-.122-.015-.303-.022-.54-.022-.39 0-.773.025-1.148.076-.375.052-.764.142-1.168.272-.405.13-.758.295-1.06.497-.304.2-.553.47-.747.81-.195.34-.292.725-.292 1.157 0 .49.13.93.385 1.314.256.387.59.69 1.006.91.416.22.85.384 1.305.492.454.108.912.162 1.374.162.424 0 .83-.045 1.216-.135.386-.09.748-.232 1.087-.423.34-.19.607-.456.806-.795.197-.34.296-.735.296-1.19zm-1.298-9.325c0-.433-.06-.893-.18-1.38-.118-.486-.287-.956-.507-1.41-.22-.455-.522-.83-.908-1.126-.386-.296-.817-.443-1.293-.443-.672 0-1.19.248-1.56.745-.367.498-.55 1.093-.55 1.785 0 .34.04.696.123 1.07.083.376.21.75.384 1.126.173.375.375.712.606 1.01.23.3.512.544.844.73.33.188.68.282 1.05.282.7 0 1.205-.218 1.52-.655.314-.435.47-1.014.47-1.735zM13.76 7h4.728l-1.46.854h-1.46c.512.325.91.78 1.19 1.363.28.584.422 1.193.422 1.828 0 .534-.083 1.008-.25 1.422-.165.415-.367.748-.605 1-.238.253-.476.486-.714.7-.237.212-.44.432-.605.66-.166.226-.25.47-.25.73 0 .187.06.37.18.55.12.18.274.354.465.52.19.166.402.34.633.52.23.18.46.38.692.6.23.22.442.457.633.713.19.256.346.562.465.92.12.357.18.74.18 1.152 0 1.154-.506 2.17-1.515 3.05C15.39 24.53 13.876 25 11.944 25c-.425 0-.856-.036-1.293-.108-.435-.072-.875-.193-1.32-.362-.442-.17-.834-.38-1.173-.628-.34-.25-.617-.57-.833-.963-.216-.394-.324-.832-.324-1.315 0-.44.133-.927.4-1.46.23-.46.577-.86 1.038-1.195.46-.335.984-.59 1.57-.768.583-.177 1.142-.307 1.676-.39.534-.082 1.074-.13 1.622-.145-.46-.598-.692-1.136-.692-1.612 0-.087.007-.17.02-.254.016-.082.034-.152.055-.21.02-.058.05-.135.086-.232.036-.098.062-.175.076-.233-.288.036-.54.054-.757.054-1.074 0-1.996-.354-2.764-1.06-.767-.708-1.15-1.595-1.15-2.662 0-1.01.342-1.913 1.027-2.71.685-.796 1.53-1.306 2.53-1.53.68-.146 1.353-.218 2.024-.218zM25 9.77v1.384h-2.77v2.77h-1.384v-2.77h-2.77V9.77h2.77V7h1.385v2.77H25z"/></svg>