<?xml version="1.0" encoding="utf-8"?>
<!-- Generator: Adobe Illustrator 17.1.0, SVG Export Plug-In . SVG Version: 6.00 Build 0)  -->
<!DOCTYPE svg PUBLIC "-//W3C//DTD SVG 1.1//EN" "http://www.w3.org/Graphics/SVG/1.1/DTD/svg11.dtd">
<svg version="1.1" id="Layer_1" xmlns="http://www.w3.org/2000/svg" xmlns:xlink="http://www.w3.org/1999/xlink" x="0px" y="0px"
	 viewBox="17 5 32 32" enable-background="new 17 5 32 32" xml:space="preserve">
<title>GooglePlus-black</title>
<desc>Created with Sketch.</desc>
<g id="Icons">
	<g id="Black" transform="translate(-391.000000, -163.000000)">
		<path id="GooglePlus" d="M436.5,182.2v-3.5H434v3.5h-3.6v2.5h3.6v3.6h2.5v-3.6h3.5v-2.5H436.5L436.5,182.2z M418.2,182v4
			c0,0,3.9,0,5.5,0c-0.9,2.6-2.2,4-5.5,4c-3.3,0-5.9-2.7-5.9-6s2.6-6,5.9-6c1.8,0,2.9,0.6,3.9,1.5c0.8-0.8,0.8-1,2.9-3
			c-1.8-1.6-4.2-2.7-6.8-2.7c-5.6,0-10.2,4.6-10.2,10.2c0,5.6,4.6,10.2,10.2,10.2c8.4,0,10.4-7.3,9.8-12.2H418.2L418.2,182z"/>
	</g>
</g>
</svg>
