<?xml version="1.0" encoding="iso-8859-1"?>
<!-- Generator: Adobe Illustrator 21.0.2, SVG Export Plug-In . SVG Version: 6.00 Build 0)  -->
<svg version="1.1" id="linked_x5F_in" xmlns="http://www.w3.org/2000/svg" xmlns:xlink="http://www.w3.org/1999/xlink" x="0px"
	 y="0px" viewBox="0 0 32 32" style="enable-background:new 0 0 32 32;" xml:space="preserve">
<path d="M10.529,8.278c0,1.181-0.872,2.138-2.307,2.138C6.872,10.415,6,9.459,6,8.278c0-1.209,0.901-2.138,2.279-2.138
	C9.657,6.139,10.501,7.068,10.529,8.278z M6.113,25.86V12.104h4.276V25.86H6.113z M12.948,16.492c0-1.716-0.056-3.15-0.113-4.388
	h3.713l0.198,1.913h0.084c0.562-0.901,1.941-2.222,4.248-2.222c2.812,0,4.922,1.885,4.922,5.936v8.13h-4.276v-7.623
	c0-1.772-0.62-2.982-2.167-2.982c-1.181,0-1.883,0.816-2.193,1.603c-0.113,0.281-0.141,0.674-0.141,1.069v7.933h-4.276V16.492z"/>
</svg>
