<svg xmlns="http://www.w3.org/2000/svg" viewBox="0 0 32 32"><title>Artboard 1</title><path d="M32,8a1.45,1.45,0,0,0,0-.15s0-.08,0-.12a1.28,1.28,0,0,0,0-.13,1.31,1.31,0,0,0,0-.13l-.06-.11-.08-.13,0,0-.06-.07L31.56,7l-.1-.09-.11-.08-.12-.07-.12-.06-.13,0-.13,0-.15,0H1.3l-.15,0L1,6.66l-.13,0-.12.06-.12.07-.11.08L.44,7l-.1.11-.06.07,0,0-.08.13-.06.11s0,.09,0,.13A1.35,1.35,0,0,0,0,7.7s0,.08,0,.12A1.36,1.36,0,0,0,0,8S0,8,0,8V24a1.39,1.39,0,0,0,1.39,1.39H30.61A1.39,1.39,0,0,0,32,24V8s0,0,0,0M26.4,9.39,16,17.11,5.6,9.39ZM2.78,22.61V10.77L15.17,20a1.39,1.39,0,0,0,1.66,0l12.39-9.2V22.61Z"/></svg>