<svg xmlns="http://www.w3.org/2000/svg" viewBox="0 0 32 32"><path d="M26 9.8c-0.7 0.3-1.5 0.5-2.4 0.6 0.8-0.5 1.5-1.3 1.8-2.3 -0.8 0.5-1.7 0.8-2.6 1 -0.7-0.8-1.8-1.3-3-1.3 -2.3 0-4.1 1.8-4.1 4.1 0 0.3 0 0.6 0.1 0.9 -3.4-0.2-6.4-1.8-8.5-4.3C7 9.2 6.8 9.9 6.8 10.7c0 1.4 0.7 2.7 1.8 3.4 -0.7 0-1.3-0.2-1.9-0.5 0 0 0 0 0 0.1 0 2 1.4 3.6 3.3 4 -0.3 0.1-0.7 0.1-1.1 0.1 -0.3 0-0.5 0-0.8-0.1 0.5 1.6 2 2.8 3.8 2.8 -1.4 1.1-3.2 1.8-5.1 1.8 -0.3 0-0.7 0-1-0.1 1.8 1.2 4 1.8 6.3 1.8 7.5 0 11.7-6.3 11.7-11.7 0-0.2 0-0.4 0-0.5C24.8 11.3 25.5 10.6 26 9.8z"/></svg>