<svg xmlns="http://www.w3.org/2000/svg" xmlns:xlink="http://www.w3.org/1999/xlink"><symbol viewBox="0 0 32 32" id="behance" xmlns="http://www.w3.org/2000/svg"><path d="M14.264 15.366s1.704-.134 1.704-2.237c0-2.104-1.394-3.13-3.16-3.13H7v11.753h5.81s3.544.117 3.544-3.468c0 0 .155-2.92-2.09-2.92zM9.56 12.088h3.25s.788 0 .788 1.223c0 1.224-.464 1.4-.992 1.4H9.56V12.09zm3.084 7.576H9.56v-3.14h3.25s1.176-.017 1.176 1.613c0 1.374-.88 1.517-1.342 1.527zm8.44-6.674c-4.293 0-4.29 4.514-4.29 4.514s-.294 4.492 4.29 4.492c0 0 3.82.23 3.82-3.126H22.94s.065 1.265-1.79 1.265c0 0-1.965.138-1.965-2.044h5.785c0 .003.633-5.1-3.886-5.1zm1.747 3.534h-3.666s.24-1.812 1.965-1.812c1.72 0 1.7 1.812 1.7 1.812zm.46-5.832h-4.607v1.447h4.605V10.69z"/></symbol><symbol viewBox="0 0 32 32" id="cart" xmlns="http://www.w3.org/2000/svg"><title>Artboard 1</title><path d="M31.94 10.22L28.22 22a2 2 0 0 1-1.89 1.37H12a2.06 2.06 0 0 1-2-1.31L4.57 7.34H1.39a1.39 1.39 0 0 1 0-2.78h4.14a1.44 1.44 0 0 1 1.31.93l5.68 15.06h13.22l3-9.39H12.32a1.39 1.39 0 0 1 0-2.78h18.29a1.42 1.42 0 0 1 1.12.62 1.4 1.4 0 0 1 .21 1.24m-19.27 15a2.29 2.29 0 0 0-1.6.66 2.24 2.24 0 0 0 0 3.18 2.27 2.27 0 0 0 3.2 0 2.25 2.25 0 0 0-1.6-3.83m12.48 0a2.28 2.28 0 0 0-1.6.66 2.24 2.24 0 0 0 0 3.18 2.25 2.25 0 1 0 1.6-3.83"/></symbol><symbol viewBox="0 0 96 96" id="cross" xmlns="http://www.w3.org/2000/svg"><switch><g><path d="M53.657 48l25.171-25.172a4 4 0 1 0-5.656-5.656L48 42.343 22.829 17.172a4 4 0 0 0-5.657 5.656L42.344 48 17.172 73.172a4 4 0 1 0 5.657 5.656L48 53.657l25.172 25.171C73.953 79.609 74.977 80 76 80s2.048-.391 2.828-1.172a4 4 0 0 0 0-5.656L53.657 48z"/></g></switch></symbol><symbol viewBox="0 0 32 32" id="dribbble" xmlns="http://www.w3.org/2000/svg"><path d="M16 25c-4.963 0-9-4.037-9-9s4.037-9 9-9 9 4.037 9 9-4.037 9-9 9zm7.59-7.768c-.263-.083-2.38-.714-4.788-.33 1.006 2.764 1.414 5.014 1.493 5.482a7.696 7.696 0 0 0 3.295-5.152zm-4.587 5.856c-.114-.674-.56-3.025-1.64-5.83-.017.006-.034.01-.05.017-4.337 1.51-5.894 4.518-6.032 4.8a7.666 7.666 0 0 0 7.722 1.013zm-8.714-1.936c.173-.298 2.283-3.79 6.248-5.073.1-.033.2-.064.303-.092a25.012 25.012 0 0 0-.622-1.305c-3.84 1.15-7.564 1.1-7.9 1.094a7.657 7.657 0 0 0 1.971 5.375zm-1.815-6.715c.344.005 3.51.018 7.107-.937a49.346 49.346 0 0 0-2.85-4.446 7.717 7.717 0 0 0-4.257 5.383zm5.724-5.9a41.492 41.492 0 0 1 2.868 4.5c2.733-1.023 3.89-2.58 4.03-2.776a7.672 7.672 0 0 0-6.898-1.722zm7.75 2.613c-.162.22-1.45 1.87-4.293 3.03.18.367.35.74.51 1.114l.165.397c2.558-.32 5.1.195 5.353.248a7.638 7.638 0 0 0-1.735-4.788z"/></symbol><symbol viewBox="0 0 32 32" id="external" xmlns="http://www.w3.org/2000/svg"><path fill="#010202" d="M24 22h4v6c0 1.1-.9 2-2 2H2c-1.1 0-2-.9-2-2V8c0-1.1.9-2 2-2h8v4H4v16h20v-4zm7.7-11.7l-8-8c-.2-.2-.4-.3-.7-.3-.1 0-.3 0-.4.1-.4.1-.6.5-.6.9v4c-6.6 0-12 6.3-12 14 2-2.3 5.4-6 12-6v4c0 .4.2.8.6.9.1.1.3.1.4.1.3 0 .5-.1.7-.3l8-8c.4-.4.4-1 0-1.4z"/></symbol><symbol viewBox="0 0 32 32" id="facebook" xmlns="http://www.w3.org/2000/svg"><path d="M13.1 17.1V26h4.4v-8.9h3l.7-3.7h-3.7v-2.7c0-.4.2-.9.8-.9h2.1V6h-3.9c-1.4 0-3.4 1.7-3.4 3.5v3.8h-2.3v3.8h2.3z"/></symbol><symbol viewBox="0 0 32 32" id="file" xmlns="http://www.w3.org/2000/svg"><title>Artboard 1</title><path d="M28.36 1.45A1.45 1.45 0 0 0 26.91 0H5.09a1.45 1.45 0 0 0-1.45 1.45v29.1A1.45 1.45 0 0 0 5.09 32h21.82a1.45 1.45 0 0 0 1.45-1.45zm-2.91 27.64H6.55V2.91h18.9zM9.64 22.91a1.45 1.45 0 0 1 1.45-1.45h9.8a1.45 1.45 0 1 1 0 2.91H11.1a1.45 1.45 0 0 1-1.45-1.45M9.87 16a1.45 1.45 0 0 1 1.45-1.45h9.58a1.45 1.45 0 1 1 0 2.91h-9.58A1.45 1.45 0 0 1 9.87 16m0-6.91a1.45 1.45 0 0 1 1.45-1.45h9.58a1.45 1.45 0 1 1 0 2.91h-9.58a1.45 1.45 0 0 1-1.45-1.46"/></symbol><symbol viewBox="0 0 32 32" id="flickr" xmlns="http://www.w3.org/2000/svg"><path d="M7 16a3.937 3.937 0 1 0 7.874 0A3.937 3.937 0 0 0 7 16zm10.125 0a3.937 3.937 0 1 0 7.874 0 3.937 3.937 0 0 0-7.874 0z"/></symbol><symbol viewBox="0 0 32 32" id="google" xmlns="http://www.w3.org/2000/svg"><path d="M16.476 21.463c0-.15-.016-.297-.05-.438-.03-.14-.066-.27-.102-.39a1.367 1.367 0 0 0-.19-.372l-.227-.33a2.105 2.105 0 0 0-.286-.32c-.13-.122-.228-.214-.297-.275a6.718 6.718 0 0 0-.346-.276c-.162-.123-.274-.205-.335-.25l-.357-.248a32.238 32.238 0 0 0-.33-.227 4.83 4.83 0 0 0-.54-.022c-.39 0-.773.025-1.148.076a6.916 6.916 0 0 0-1.168.272c-.405.13-.758.295-1.06.497a2.335 2.335 0 0 0-1.039 1.967c0 .49.13.93.385 1.314.256.387.59.69 1.006.91.416.22.85.384 1.305.492.454.108.912.162 1.374.162.424 0 .83-.045 1.216-.135a4.1 4.1 0 0 0 1.087-.423c.34-.19.607-.456.806-.795.197-.34.296-.735.296-1.19zm-1.298-9.325c0-.433-.06-.893-.18-1.38a7.027 7.027 0 0 0-.507-1.41 3.088 3.088 0 0 0-.908-1.126 2.072 2.072 0 0 0-1.293-.443c-.672 0-1.19.248-1.56.745-.367.498-.55 1.093-.55 1.785 0 .34.04.696.123 1.07.083.376.21.75.384 1.126.173.375.375.712.606 1.01.23.3.512.544.844.73.33.188.68.282 1.05.282.7 0 1.205-.218 1.52-.655.314-.435.47-1.014.47-1.735zM13.76 7h4.728l-1.46.854h-1.46c.512.325.91.78 1.19 1.363a4.18 4.18 0 0 1 .422 1.828c0 .534-.083 1.008-.25 1.422-.165.415-.367.748-.605 1-.238.253-.476.486-.714.7a4.19 4.19 0 0 0-.605.66c-.166.226-.25.47-.25.73 0 .187.06.37.18.55.12.18.274.354.465.52.19.166.402.34.633.52.23.18.46.38.692.6.23.22.442.457.633.713.19.256.346.562.465.92.12.357.18.74.18 1.152 0 1.154-.506 2.17-1.515 3.05C15.39 24.53 13.876 25 11.944 25c-.425 0-.856-.036-1.293-.108a6.884 6.884 0 0 1-1.32-.362 5.045 5.045 0 0 1-1.173-.628 2.92 2.92 0 0 1-.833-.963 2.689 2.689 0 0 1-.324-1.315c0-.44.133-.927.4-1.46.23-.46.577-.86 1.038-1.195a5.22 5.22 0 0 1 1.57-.768 12.273 12.273 0 0 1 1.676-.39c.534-.082 1.074-.13 1.622-.145-.46-.598-.692-1.136-.692-1.612 0-.087.007-.17.02-.254.016-.082.034-.152.055-.21.02-.058.05-.135.086-.232a2.31 2.31 0 0 0 .076-.233c-.288.036-.54.054-.757.054-1.074 0-1.996-.354-2.764-1.06-.767-.708-1.15-1.595-1.15-2.662 0-1.01.342-1.913 1.027-2.71a4.588 4.588 0 0 1 2.53-1.53 9.606 9.606 0 0 1 2.024-.218zM25 9.77v1.384h-2.77v2.77h-1.384v-2.77h-2.77V9.77h2.77V7h1.385v2.77H25z"/></symbol><symbol viewBox="17 5 32 32" id="googleplus" xmlns="http://www.w3.org/2000/svg"><title>GooglePlus-black</title><path d="M45.5 19.2v-3.5H43v3.5h-3.6v2.5H43v3.6h2.5v-3.6H49v-2.5h-3.5zM27.2 19v4h5.5c-.9 2.6-2.2 4-5.5 4s-5.9-2.7-5.9-6 2.6-6 5.9-6c1.8 0 2.9.6 3.9 1.5.8-.8.8-1 2.9-3-1.8-1.6-4.2-2.7-6.8-2.7C21.6 10.8 17 15.4 17 21s4.6 10.2 10.2 10.2c8.4 0 10.4-7.3 9.8-12.2h-9.8z"/></symbol><symbol viewBox="0 0 32 32" id="instagram" xmlns="http://www.w3.org/2000/svg"><path d="M24.9 12.3c0-1-.2-1.6-.4-2.2-.2-.6-.5-1.1-1-1.6s-1-.8-1.6-1c-.6-.2-1.2-.4-2.2-.4C18.8 7 18.4 7 16 7s-2.8 0-3.7.1c-1 0-1.6.2-2.2.4-.6.2-1.1.5-1.6 1s-.8 1-1 1.6c-.2.6-.4 1.2-.4 2.2-.1.9-.1 1.3-.1 3.7s0 2.8.1 3.7c0 1 .2 1.6.4 2.2.2.6.5 1.1 1 1.6s1 .8 1.6 1c.6.2 1.2.4 2.2.4 1 0 1.3.1 3.7.1s2.8 0 3.7-.1c1 0 1.6-.2 2.2-.4.6-.2 1.1-.5 1.6-1s.8-1 1-1.6c.2-.6.4-1.2.4-2.2 0-1 .1-1.3.1-3.7s0-2.8-.1-3.7zm-1.6 7.3c0 .9-.2 1.4-.3 1.7-.2.4-.4.7-.7 1s-.6.5-1 .7c-.3.1-.8.3-1.7.3-.9 0-1.2.1-3.6.1s-2.7 0-3.6-.1c-.9 0-1.4-.2-1.7-.3-.4-.2-.7-.4-1-.7s-.5-.6-.7-1c-.1-.3-.3-.8-.3-1.7 0-.9-.1-1.2-.1-3.6s0-2.7.1-3.6c0-.9.2-1.4.3-1.7.2-.4.4-.7.7-1s.6-.5 1-.7c.3-.1.8-.3 1.7-.3.9 0 1.2-.1 3.6-.1s2.7 0 3.6.1c.9 0 1.4.2 1.7.3.4.2.7.4 1 .7s.5.6.7 1c.1.3.3.8.3 1.7 0 .9.1 1.2.1 3.6s0 2.7-.1 3.6z"/><path d="M16 11.4c-2.6 0-4.6 2.1-4.6 4.6s2.1 4.6 4.6 4.6 4.6-2.1 4.6-4.6-2-4.6-4.6-4.6zm0 7.6c-1.7 0-3-1.3-3-3s1.3-3 3-3 3 1.3 3 3-1.3 3-3 3z"/><circle cx="20.8" cy="11.2" r="1.1"/></symbol><symbol viewBox="0 0 32 32" id="linkedIn" xmlns="http://www.w3.org/2000/svg"><path d="M10.529 8.278c0 1.181-.872 2.138-2.307 2.138C6.872 10.415 6 9.459 6 8.278c0-1.209.901-2.138 2.279-2.138 1.378-.001 2.222.928 2.25 2.138zM6.113 25.86V12.104h4.276V25.86H6.113zm6.835-9.368c0-1.716-.056-3.15-.113-4.388h3.713l.198 1.913h.084c.562-.901 1.941-2.222 4.248-2.222 2.812 0 4.922 1.885 4.922 5.936v8.13h-4.276v-7.623c0-1.772-.62-2.982-2.167-2.982-1.181 0-1.883.816-2.193 1.603-.113.281-.141.674-.141 1.069v7.933h-4.276v-9.369z"/></symbol><symbol viewBox="0 0 32 32" id="message" xmlns="http://www.w3.org/2000/svg"><title>Artboard 1</title><path d="M32 8a1.45 1.45 0 0 0 0-.15v-.12a1.28 1.28 0 0 0 0-.13 1.31 1.31 0 0 0 0-.13l-.06-.11-.08-.13-.06-.07-.24-.16-.1-.09-.11-.08-.12-.07-.12-.06H1.15L1 6.66H.87l-.12.06-.12.07-.11.08L.44 7l-.1.11-.06.07-.08.13-.06.11v.13A1.35 1.35 0 0 0 0 7.7v.12A1.36 1.36 0 0 0 0 8v16a1.39 1.39 0 0 0 1.39 1.39h29.22A1.39 1.39 0 0 0 32 24V8m-5.6 1.39L16 17.11 5.6 9.39zM2.78 22.61V10.77L15.17 20a1.39 1.39 0 0 0 1.66 0l12.39-9.2v11.81z"/></symbol><symbol viewBox="0 0 32 32" id="minus" xmlns="http://www.w3.org/2000/svg"><path d="M30 20c1.1 0 2-.9 2-2v-4c0-1.1-.9-2-2-2H2c-1.1 0-2 .9-2 2v4c0 1.1.9 2 2 2h28z"/></symbol><symbol viewBox="0 0 32 32" id="pinterest" xmlns="http://www.w3.org/2000/svg"><path d="M14.754 18.905c-.472 2.478-1.05 4.854-2.76 6.095-.526-3.745.776-6.558 1.38-9.544-1.03-1.737.124-5.23 2.3-4.37 2.677 1.06-2.318 6.456 1.035 7.13 3.5.704 4.93-6.075 2.76-8.28-3.138-3.183-9.134-.073-8.396 4.484.18 1.114 1.33 1.452.46 2.99-2.008-.445-2.607-2.03-2.53-4.14.125-3.455 3.106-5.874 6.096-6.21 3.782-.423 7.33 1.39 7.82 4.946.55 4.014-1.707 8.362-5.75 8.05-1.096-.085-1.556-.628-2.416-1.15z"/></symbol><symbol viewBox="0 0 32 32" id="star" xmlns="http://www.w3.org/2000/svg"><title>Artboard 1</title><path d="M16 .78l4.94 10.02L32 12.41l-8 7.8 1.89 11.01-9.89-5.2-9.89 5.2L8 20.21l-8-7.8 11.06-1.61L16 .78z"/></symbol><symbol viewBox="0 0 32 32" id="twitter" xmlns="http://www.w3.org/2000/svg"><path d="M26 9.8c-.7.3-1.5.5-2.4.6.8-.5 1.5-1.3 1.8-2.3-.8.5-1.7.8-2.6 1-.7-.8-1.8-1.3-3-1.3-2.3 0-4.1 1.8-4.1 4.1 0 .3 0 .6.1.9-3.4-.2-6.4-1.8-8.5-4.3-.3.7-.5 1.4-.5 2.2 0 1.4.7 2.7 1.8 3.4-.7 0-1.3-.2-1.9-.5v.1c0 2 1.4 3.6 3.3 4-.3.1-.7.1-1.1.1-.3 0-.5 0-.8-.1.5 1.6 2 2.8 3.8 2.8-1.4 1.1-3.2 1.8-5.1 1.8-.3 0-.7 0-1-.1 1.8 1.2 4 1.8 6.3 1.8 7.5 0 11.7-6.3 11.7-11.7v-.5c1-.5 1.7-1.2 2.2-2z"/></symbol><symbol viewBox="0 0 32 32" id="vimeo" xmlns="http://www.w3.org/2000/svg"><path d="M7 12.354l.73.977s1.51-1.21 2.01-.605c.504.606 2.422 7.915 3.063 9.263.56 1.182 2.1 2.746 3.792 1.63 1.69-1.116 7.31-6.004 8.316-11.777 1.006-5.77-6.762-4.56-7.584.467 2.056-1.257 3.154.51 2.102 2.514-1.05 2.002-2.01 3.307-2.513 3.307-.502 0-.888-1.34-1.463-3.68-.594-2.42-.59-6.777-3.06-6.282C10.062 8.63 7 12.355 7 12.355z"/></symbol><symbol viewBox="0 0 32 32" id="warning" xmlns="http://www.w3.org/2000/svg"><path d="M31 22.1L21 4.7c-1.2-2.1-3-3.3-4.9-3.3-1.9 0-3.7 1.2-4.9 3.3L1 22.1C-.2 24.2-.4 26.4.6 28c1 1.7 2.9 2.6 5.3 2.6H26c2.4 0 4.4-1 5.3-2.6 1-1.7.9-3.8-.3-5.9zM28 26c-.2.4-1 .7-1.9.7H6c-1 0-1.7-.3-1.9-.7-.2-.4-.1-1.2.4-2l10-17.4c.5-.8 1.1-1.3 1.6-1.3s1.1.5 1.6 1.3l10 17.4c.4.9.5 1.6.3 2z"/><path d="M16.8 19.4l.4-6.6h-2.4l.4 6.6zm-.8.8c-.8 0-1.3.6-1.3 1.3 0 .8.5 1.3 1.3 1.3s1.3-.6 1.3-1.3c0-.8-.5-1.3-1.3-1.3z"/></symbol><symbol viewBox="0 0 32 32" id="youtube" xmlns="http://www.w3.org/2000/svg"><path d="M24.237 10.932c-.497-.878-1.027-1.044-2.104-1.11-1.077-.067-3.782-.1-6.133-.1-2.35 0-5.056.033-6.134.1-1.077.065-1.607.23-2.104 1.11-.496.878-.762 2.4-.762 5.065v.006c0 2.664.266 4.187.762 5.065.497.878 1.027 1.044 2.104 1.11 1.078.066 3.783.1 6.134.1 2.35 0 5.056-.035 6.134-.1 1.077-.066 1.607-.232 2.104-1.11.496-.878.762-2.4.762-5.065v-.006c0-2.664-.266-4.187-.763-5.065zM14.207 19.3v-6.6L19.32 16l-5.112 3.3z" fill-rule="evenodd" clip-rule="evenodd"/></symbol></svg>